<svg width="687" height="776" viewBox="0 0 687 776" fill="none" xmlns="http://www.w3.org/2000/svg">
<path d="M318 609C179.929 609 68 497.071 68 359L68 154.455C68 129.351 88.3507 109 113.455 109L318 109C456.071 109 568 220.929 568 359C568 497.071 456.071 609 318 609Z" fill="#3C50E0"/>
<g filter="url(#filter0_d)">
<rect x="158" y="40" width="284" height="321" rx="20" fill="white"/>
</g>
<path d="M272.965 94.4V104.312C272.965 106.76 271.429 108.008 269.269 108.008C267.133 108.008 265.597 106.76 265.597 104.312V94.4H263.341V104.552C263.341 107.696 265.501 110.192 269.269 110.192C273.061 110.192 275.197 107.696 275.197 104.552V94.4H272.965ZM284.035 98.792C282.331 98.792 281.059 99.512 280.243 100.688V98.96H278.083V114.416H280.243V108.32C281.059 109.472 282.331 110.192 284.035 110.192C287.155 110.192 289.387 107.816 289.387 104.504C289.387 101.216 287.155 98.792 284.035 98.792ZM283.747 108.152C281.635 108.152 280.243 106.616 280.243 104.504C280.243 102.368 281.635 100.832 283.747 100.832C285.883 100.832 287.275 102.368 287.275 104.504C287.275 106.616 285.883 108.152 283.747 108.152ZM294.071 110L294.095 94.4H291.911V110H294.071ZM302.277 110.216C305.589 110.216 307.893 107.768 307.893 104.48C307.893 101.144 305.589 98.744 302.277 98.744C298.941 98.744 296.613 101.144 296.613 104.48C296.613 107.768 298.941 110.216 302.277 110.216ZM302.277 108.152C300.165 108.152 298.773 106.568 298.773 104.48C298.773 102.368 300.165 100.832 302.277 100.832C304.365 100.832 305.757 102.368 305.757 104.48C305.757 106.568 304.365 108.152 302.277 108.152ZM319.187 98.96V100.664C318.371 99.512 317.099 98.792 315.395 98.792C312.275 98.792 310.043 101.144 310.043 104.48C310.043 107.768 312.275 110.192 315.395 110.192C317.099 110.192 318.371 109.472 319.187 108.296V110H321.347V98.96H319.187ZM315.683 108.152C313.547 108.152 312.155 106.592 312.155 104.48C312.155 102.344 313.547 100.832 315.683 100.832C317.795 100.832 319.187 102.344 319.187 104.48C319.187 106.592 317.795 108.152 315.683 108.152ZM333.015 94.4V100.664C332.199 99.512 330.927 98.792 329.223 98.792C326.103 98.792 323.871 101.144 323.871 104.48C323.871 107.768 326.103 110.192 329.223 110.192C330.927 110.192 332.199 109.472 333.015 108.296V110H335.175V94.4H333.015ZM329.511 108.152C327.375 108.152 325.983 106.592 325.983 104.48C325.983 102.344 327.375 100.832 329.511 100.832C331.623 100.832 333.015 102.344 333.015 104.48C333.015 106.592 331.623 108.152 329.511 108.152Z" fill="#B6BAC4"/>
<g filter="url(#filter1_d)">
<rect x="-7" y="407" width="284" height="321" rx="20" fill="white"/>
</g>
<circle opacity="0.1" cx="59" cy="466" r="20" fill="#FF5670"/>
<path d="M56.0621 470.698V472H62.9845V470.564H58.3126L59.9423 469.012C60.9512 468.044 63 466.208 63 464.138C63 462.202 61.6341 461 59.4922 461C57.5676 461 56.3104 462.252 56 463.32L57.3193 463.954C57.5366 463.187 58.3902 462.486 59.4922 462.486C60.7805 462.486 61.4945 463.17 61.4945 464.222C61.4945 465.674 59.5854 467.393 58.2816 468.595L56.0621 470.698Z" fill="#FF5670"/>
<g filter="url(#filter2_d)">
<rect x="318" y="407" width="325" height="269" rx="20" fill="white"/>
</g>
<path d="M460.411 476L456.451 470.072C458.419 469.664 460.099 467.912 460.099 465.272C460.099 462.248 457.891 460.4 455.539 460.4H448.243V476H450.499V470.168H453.883L457.795 476H460.411ZM450.499 462.584H455.203C456.715 462.584 457.867 463.736 457.867 465.272C457.867 466.832 456.715 467.984 455.203 467.984H450.499V462.584ZM467.089 464.768C463.777 464.768 461.617 467.192 461.617 470.48C461.617 473.768 463.873 476.216 467.233 476.216C469.249 476.216 470.905 475.328 471.865 473.936L470.353 472.856C469.825 473.624 468.817 474.344 467.233 474.344C465.313 474.344 463.921 473.072 463.705 471.104H472.393V470.48C472.393 467.192 470.305 464.768 467.089 464.768ZM467.089 466.496C468.937 466.496 470.113 467.84 470.377 469.688H463.705C463.969 467.768 465.193 466.496 467.089 466.496ZM483.099 468.2L484.659 467C483.699 465.632 482.115 464.768 480.171 464.768C476.859 464.768 474.555 467.144 474.555 470.48C474.555 473.792 476.859 476.216 480.171 476.216C482.115 476.216 483.699 475.352 484.659 473.96L483.099 472.808C482.547 473.552 481.635 474.152 480.219 474.152C478.107 474.152 476.667 472.592 476.667 470.48C476.667 468.344 478.107 466.832 480.219 466.832C481.635 466.832 482.571 467.456 483.099 468.2ZM489.098 467V464.96H486.938V476H489.098V470.336C489.098 467.504 491.498 466.856 492.986 466.832V464.792C491.45 464.816 489.962 465.488 489.098 467ZM502.917 464.96V471.44C502.917 473.48 501.501 474.32 500.133 474.32C498.741 474.32 497.301 473.48 497.301 471.44V464.96H495.141V471.752C495.141 474.944 497.373 476.192 499.509 476.192C500.781 476.192 502.077 475.76 502.917 474.68V476H505.077V464.96H502.917ZM509.234 462.848C509.858 462.848 510.482 462.344 510.482 461.576C510.482 460.784 509.858 460.352 509.234 460.352C508.61 460.352 507.962 460.784 507.962 461.576C507.962 462.344 508.61 462.848 509.234 462.848ZM510.314 476V464.96H508.154V476H510.314ZM518.872 466.616V464.96H516.304V461.576H514.144V464.96H512.632V466.616H514.144V473.168C514.144 474.968 515.152 476 517 476H518.752V474.272H517.84C517.072 474.272 516.304 474.056 516.304 472.856V466.616H518.872Z" fill="#B6BAC4"/>
<path d="M107.343 466.912C108.375 466.264 109.047 465.208 109.047 463.648C109.047 460.936 107.031 459.4 104.631 459.4H97.407V475H105.087C107.487 475 109.623 473.296 109.623 470.608C109.623 468.832 108.687 467.56 107.343 466.912ZM99.663 461.464H104.271C105.759 461.464 106.743 462.352 106.743 463.744C106.743 465.136 105.759 466.048 104.271 466.048H99.663V461.464ZM104.775 472.936H99.663V467.92H104.775C106.311 467.92 107.319 469.024 107.319 470.416C107.319 471.808 106.335 472.936 104.775 472.936ZM119.667 463.96V470.44C119.667 472.48 118.251 473.32 116.883 473.32C115.491 473.32 114.051 472.48 114.051 470.44V463.96H111.891V470.752C111.891 473.944 114.123 475.192 116.259 475.192C117.531 475.192 118.827 474.76 119.667 473.68V475H121.827V463.96H119.667ZM125.984 461.848C126.608 461.848 127.232 461.344 127.232 460.576C127.232 459.784 126.608 459.352 125.984 459.352C125.36 459.352 124.712 459.784 124.712 460.576C124.712 461.344 125.36 461.848 125.984 461.848ZM127.064 475V463.96H124.904V475H127.064ZM132.262 475L132.286 459.4H130.102V475H132.262ZM143.949 459.4V465.664C143.133 464.512 141.861 463.792 140.157 463.792C137.037 463.792 134.805 466.144 134.805 469.48C134.805 472.768 137.037 475.192 140.157 475.192C141.861 475.192 143.133 474.472 143.949 473.296V475H146.109V459.4H143.949ZM140.445 473.152C138.309 473.152 136.917 471.592 136.917 469.48C136.917 467.344 138.309 465.832 140.445 465.832C142.557 465.832 143.949 467.344 143.949 469.48C143.949 471.592 142.557 473.152 140.445 473.152Z" fill="#B6BAC4"/>
<circle opacity="0.1" cx="220" cy="102" r="20" fill="#3C50E0"/>
<path d="M220.133 110H223V94H217V96.9046H220.133V110Z" fill="#3C50E0"/>
<rect opacity="0.1" x="189" y="166" width="210" height="27" rx="13.5" fill="#B6BAC3"/>
<rect opacity="0.1" width="101" height="23" rx="11.5" transform="matrix(1 0 0 -1 189 235)" fill="#B6BAC3"/>
<rect opacity="0.1" width="129" height="23" rx="11.5" transform="matrix(1 0 0 -1 189 277)" fill="#B6BAC3"/>
<circle cx="375" cy="254" r="33" fill="#EEF5FF"/>
<path d="M376.054 261.195V249.556L381.196 254.641C381.607 255.047 382.281 255.047 382.692 254.641C383.103 254.235 383.103 253.578 382.692 253.172L375.748 246.305C375.337 245.898 374.673 245.898 374.262 246.305L367.308 253.161C366.897 253.568 366.897 254.224 367.308 254.631C367.719 255.037 368.383 255.037 368.794 254.631L373.946 249.556V261.195C373.946 261.768 374.42 262.237 375 262.237C375.58 262.237 376.054 261.768 376.054 261.195Z" fill="#3E51DF"/>
<circle opacity="0.1" cx="399" cy="466" r="20" fill="#FDB400"/>
<path d="M399.028 464.571L401.774 462.216V461H395.694V462.307H399.767L396.599 464.906L396.584 465.97C397.188 465.757 397.761 465.666 398.319 465.666C399.601 465.666 400.582 466.395 400.582 467.657C400.582 468.872 399.601 469.617 398.319 469.617C397.263 469.617 396.358 469.146 395.92 468.584L395 469.511C395.603 470.392 396.931 471 398.319 471C400.205 471 402 469.921 402 467.657C402 465.635 400.491 464.754 399.028 464.571Z" fill="#FDB400"/>
<rect opacity="0.1" x="23" y="586" width="90" height="90" rx="16" fill="#B6BAC3"/>
<rect opacity="0.3" x="127" y="502" width="113" height="120" rx="16" fill="#B6BAC3"/>
<rect opacity="0.8" width="100" height="39" rx="16" transform="matrix(1 0 0 -1 135 680)" fill="#FF5670"/>
<rect opacity="0.3" x="18" y="536" width="90" height="31" rx="15.5" fill="#B6BAC3"/>
<circle opacity="0.4" cx="547" cy="561" r="27" fill="#B6BAC3"/>
<circle opacity="0.2" cx="527.5" cy="509.5" r="11.5" fill="#B6BAC3"/>
<circle opacity="0.1" cx="413.5" cy="520.5" r="11.5" fill="#B6BAC3"/>
<circle opacity="0.5" cx="412.5" cy="593.5" r="37.5" fill="#FDB400"/>
<circle cx="505" cy="648" r="55" fill="#E5E6E9"/>
<circle opacity="0.3" cx="474" cy="536" r="27" fill="#B6BAC3"/>
<path d="M575.111 175.442C572.046 171.987 573.87 166.509 578.394 165.582L602.149 160.712C606.674 159.785 610.506 164.103 609.047 168.486L601.386 191.492C599.927 195.875 594.271 197.034 591.206 193.579L575.111 175.442Z" fill="#B6D2FB"/>
<defs>
<filter id="filter0_d" x="114" y="0" width="372" height="409" filterUnits="userSpaceOnUse" color-interpolation-filters="sRGB">
<feFlood flood-opacity="0" result="BackgroundImageFix"/>
<feColorMatrix in="SourceAlpha" type="matrix" values="0 0 0 0 0 0 0 0 0 0 0 0 0 0 0 0 0 0 127 0"/>
<feOffset dy="4"/>
<feGaussianBlur stdDeviation="22"/>
<feColorMatrix type="matrix" values="0 0 0 0 0.575 0 0 0 0 0.575 0 0 0 0 0.575 0 0 0 0.25 0"/>
<feBlend mode="normal" in2="BackgroundImageFix" result="effect1_dropShadow"/>
<feBlend mode="normal" in="SourceGraphic" in2="effect1_dropShadow" result="shape"/>
</filter>
<filter id="filter1_d" x="-51" y="367" width="372" height="409" filterUnits="userSpaceOnUse" color-interpolation-filters="sRGB">
<feFlood flood-opacity="0" result="BackgroundImageFix"/>
<feColorMatrix in="SourceAlpha" type="matrix" values="0 0 0 0 0 0 0 0 0 0 0 0 0 0 0 0 0 0 127 0"/>
<feOffset dy="4"/>
<feGaussianBlur stdDeviation="22"/>
<feColorMatrix type="matrix" values="0 0 0 0 0.575 0 0 0 0 0.575 0 0 0 0 0.575 0 0 0 0.25 0"/>
<feBlend mode="normal" in2="BackgroundImageFix" result="effect1_dropShadow"/>
<feBlend mode="normal" in="SourceGraphic" in2="effect1_dropShadow" result="shape"/>
</filter>
<filter id="filter2_d" x="274" y="367" width="413" height="357" filterUnits="userSpaceOnUse" color-interpolation-filters="sRGB">
<feFlood flood-opacity="0" result="BackgroundImageFix"/>
<feColorMatrix in="SourceAlpha" type="matrix" values="0 0 0 0 0 0 0 0 0 0 0 0 0 0 0 0 0 0 127 0"/>
<feOffset dy="4"/>
<feGaussianBlur stdDeviation="22"/>
<feColorMatrix type="matrix" values="0 0 0 0 0.575 0 0 0 0 0.575 0 0 0 0 0.575 0 0 0 0.25 0"/>
<feBlend mode="normal" in2="BackgroundImageFix" result="effect1_dropShadow"/>
<feBlend mode="normal" in="SourceGraphic" in2="effect1_dropShadow" result="shape"/>
</filter>
</defs>
</svg>
