<svg width="115" height="115" viewBox="0 0 115 115" fill="none" xmlns="http://www.w3.org/2000/svg">
<path opacity="0.1" d="M0 57.5C0 25.7436 25.7436 0 57.5 0C89.2564 0 115 25.7436 115 57.5C115 89.2564 89.2564 115 57.5 115H15.8621C7.10169 115 0 107.898 0 99.1379V57.5Z" fill="#3C50E0"/>
<path d="M60.0413 53.8333H34.6247C33.2268 53.8333 32.083 54.9958 32.083 56.4167C32.083 57.8375 33.2268 59 34.6247 59H60.0413C61.4393 59 62.583 57.8375 62.583 56.4167C62.583 54.9958 61.4393 53.8333 60.0413 53.8333ZM60.0413 43.5H34.6247C33.2268 43.5 32.083 44.6625 32.083 46.0833C32.083 47.5042 33.2268 48.6667 34.6247 48.6667H60.0413C61.4393 48.6667 62.583 47.5042 62.583 46.0833C62.583 44.6625 61.4393 43.5 60.0413 43.5ZM34.6247 69.3333H49.8747C51.2726 69.3333 52.4163 68.1708 52.4163 66.75C52.4163 65.3292 51.2726 64.1667 49.8747 64.1667H34.6247C33.2268 64.1667 32.083 65.3292 32.083 66.75C32.083 68.1708 33.2268 69.3333 34.6247 69.3333ZM83.4501 59.5425L83.6788 59.775C84.6701 60.7825 84.6701 62.41 83.6788 63.4175L69.4963 77.8583C68.5051 78.8658 66.9038 78.8658 65.9126 77.8583L58.0588 69.8758C57.0676 68.8683 57.0676 67.2408 58.0588 66.2333L58.2876 66.0008C59.2788 64.9933 60.8801 64.9933 61.8713 66.0008L67.7172 71.9425L79.8663 59.5683C80.8322 58.535 82.4588 58.535 83.4501 59.5425Z" fill="#3C50E0"/>
</svg>
