<svg width="16" height="16" viewBox="0 0 16 16" fill="none" xmlns="http://www.w3.org/2000/svg">
<path d="M9.99992 0.666504H2.66659C1.93325 0.666504 1.33325 1.2665 1.33325 1.99984V10.6665C1.33325 11.0332 1.63325 11.3332 1.99992 11.3332C2.36659 11.3332 2.66659 11.0332 2.66659 10.6665V2.6665C2.66659 2.29984 2.96659 1.99984 3.33325 1.99984H9.99992C10.3666 1.99984 10.6666 1.69984 10.6666 1.33317C10.6666 0.966504 10.3666 0.666504 9.99992 0.666504ZM12.6666 3.33317H5.33325C4.59992 3.33317 3.99992 3.93317 3.99992 4.6665V13.9998C3.99992 14.7332 4.59992 15.3332 5.33325 15.3332H12.6666C13.3999 15.3332 13.9999 14.7332 13.9999 13.9998V4.6665C13.9999 3.93317 13.3999 3.33317 12.6666 3.33317ZM11.9999 13.9998H5.99992C5.63325 13.9998 5.33325 13.6998 5.33325 13.3332V5.33317C5.33325 4.9665 5.63325 4.6665 5.99992 4.6665H11.9999C12.3666 4.6665 12.6666 4.9665 12.6666 5.33317V13.3332C12.6666 13.6998 12.3666 13.9998 11.9999 13.9998Z" fill="#3C50E0"/>
</svg>
