<svg width="40" height="52" viewBox="0 0 40 52" fill="none" xmlns="http://www.w3.org/2000/svg">
<path d="M16.6667 13.8125V0H37.5C38.8854 0 40 1.08672 40 2.4375V49.5625C40 50.9133 38.8854 52 37.5 52H2.5C1.11459 52 0 50.9133 0 49.5625V16.25H14.1667C15.5417 16.25 16.6667 15.1531 16.6667 13.8125ZM10 37.7812C10 38.4516 10.5625 39 11.25 39H28.75C29.4375 39 30 38.4516 30 37.7812V36.9688C30 36.2984 29.4375 35.75 28.75 35.75H11.25C10.5625 35.75 10 36.2984 10 36.9688V37.7812ZM10 31.2812C10 31.9516 10.5625 32.5 11.25 32.5H28.75C29.4375 32.5 30 31.9516 30 31.2812V30.4688C30 29.7984 29.4375 29.25 28.75 29.25H11.25C10.5625 29.25 10 29.7984 10 30.4688V31.2812ZM10 23.9688V24.7812C10 25.4516 10.5625 26 11.25 26H28.75C29.4375 26 30 25.4516 30 24.7812V23.9688C30 23.2984 29.4375 22.75 28.75 22.75H11.25C10.5625 22.75 10 23.2984 10 23.9688ZM0 12.3805V13H13.3333V0H12.6979C12.0312 0 11.3958 0.253906 10.9271 0.710938L0.729168 10.6641C0.260418 11.1211 0 11.7406 0 12.3805Z" fill="#464265"/>
</svg>
