<svg width="22" height="22" viewBox="0 0 22 22" fill="none" xmlns="http://www.w3.org/2000/svg">
<path d="M5.99884 1.52568C5.95094 1.47761 5.89401 1.43947 5.83134 1.41344C5.76866 1.38742 5.70147 1.37402 5.63361 1.37402C5.56574 1.37402 5.49855 1.38742 5.43587 1.41344C5.3732 1.43947 5.31627 1.47761 5.26837 1.52568L2.53212 4.24603L1.55673 3.29556C1.50883 3.24749 1.45191 3.20935 1.38923 3.18333C1.32656 3.1573 1.25936 3.14391 1.1915 3.14391C1.12364 3.14391 1.05644 3.1573 0.993765 3.18333C0.93109 3.20935 0.874169 3.24749 0.826265 3.29556L0.151656 3.97103C0.103587 4.01894 0.0654457 4.07586 0.0394211 4.13853C0.0133964 4.20121 0 4.2684 0 4.33627C0 4.40413 0.0133964 4.47133 0.0394211 4.534C0.0654457 4.59668 0.103587 4.6536 0.151656 4.7015L2.19654 6.73822C2.29861 6.83524 2.43405 6.88935 2.57488 6.88935C2.7157 6.88935 2.85115 6.83524 2.95322 6.73822L3.6231 6.06705L6.72544 2.96513C6.8221 2.8684 6.87672 2.73744 6.87744 2.60069C6.87817 2.46394 6.82494 2.33242 6.72931 2.23466L5.99884 1.52568ZM5.99884 8.36588C5.95094 8.31781 5.89401 8.27966 5.83134 8.25364C5.76866 8.22762 5.70147 8.21422 5.63361 8.21422C5.56574 8.21422 5.49855 8.22762 5.43587 8.25364C5.3732 8.27966 5.31627 8.31781 5.26837 8.36588L2.53212 11.1038L1.55673 10.1542C1.50883 10.1062 1.45191 10.068 1.38923 10.042C1.32656 10.016 1.25936 10.0026 1.1915 10.0026C1.12364 10.0026 1.05644 10.016 0.993765 10.042C0.93109 10.068 0.874169 10.1062 0.826265 10.1542L0.151656 10.8284C0.103587 10.8763 0.0654457 10.9332 0.0394211 10.9959C0.0133964 11.0586 0 11.1258 0 11.1936C0 11.2615 0.0133964 11.3287 0.0394211 11.3914C0.0654457 11.4541 0.103587 11.511 0.151656 11.5589L2.19138 13.5999C2.29338 13.6969 2.42875 13.751 2.56951 13.751C2.71026 13.751 2.84563 13.6969 2.94763 13.5999L3.62224 12.9257L6.72458 9.82252C6.82087 9.72645 6.87531 9.59624 6.87603 9.46023C6.87676 9.32421 6.82371 9.19343 6.72845 9.09634L5.99884 8.36588ZM2.74997 15.8128C1.61173 15.8128 0.662125 16.7366 0.662125 17.8753C0.662125 19.014 1.61259 19.9378 2.74997 19.9378C3.29698 19.9378 3.82159 19.7205 4.20838 19.3337C4.59517 18.9469 4.81247 18.4223 4.81247 17.8753C4.81247 17.3283 4.59517 16.8037 4.20838 16.4169C3.82159 16.0301 3.29698 15.8128 2.74997 15.8128ZM21.3125 16.5003H8.93747C8.75513 16.5003 8.58027 16.5727 8.45133 16.7017C8.3224 16.8306 8.24997 17.0055 8.24997 17.1878V18.5628C8.24997 18.7451 8.3224 18.92 8.45133 19.0489C8.58027 19.1779 8.75513 19.2503 8.93747 19.2503H21.3125C21.4948 19.2503 21.6697 19.1779 21.7986 19.0489C21.9275 18.92 22 18.7451 22 18.5628V17.1878C22 17.0055 21.9275 16.8306 21.7986 16.7017C21.6697 16.5727 21.4948 16.5003 21.3125 16.5003ZM21.3125 2.75029H8.93747C8.75513 2.75029 8.58027 2.82272 8.45133 2.95165C8.3224 3.08059 8.24997 3.25545 8.24997 3.43779V4.81279C8.24997 4.99513 8.3224 5.16999 8.45133 5.29893C8.58027 5.42786 8.75513 5.50029 8.93747 5.50029H21.3125C21.4948 5.50029 21.6697 5.42786 21.7986 5.29893C21.9275 5.16999 22 4.99513 22 4.81279V3.43779C22 3.25545 21.9275 3.08059 21.7986 2.95165C21.6697 2.82272 21.4948 2.75029 21.3125 2.75029ZM21.3125 9.62529H8.93747C8.75513 9.62529 8.58027 9.69772 8.45133 9.82665C8.3224 9.95559 8.24997 10.1305 8.24997 10.3128V11.6878C8.24997 11.8701 8.3224 12.045 8.45133 12.1739C8.58027 12.3029 8.75513 12.3753 8.93747 12.3753H21.3125C21.4948 12.3753 21.6697 12.3029 21.7986 12.1739C21.9275 12.045 22 11.8701 22 11.6878V10.3128C22 10.1305 21.9275 9.95559 21.7986 9.82665C21.6697 9.69772 21.4948 9.62529 21.3125 9.62529Z" fill="#00005C"/>
</svg>
