<svg width="30" height="24" viewBox="0 0 30 24" fill="none" xmlns="http://www.w3.org/2000/svg">
<g clip-path="url(#clip0)">
<path d="M12.0929 12.7955L2.98306 21.9053C2.5437 22.3447 1.83138 22.3447 1.39207 21.9053L0.329509 20.8428C-0.109101 20.4042 -0.109945 19.6933 0.327634 19.2537L7.54741 12L0.32768 4.74628C-0.109898 4.30664 -0.109054 3.59578 0.329555 3.15717L1.39207 2.09466C1.83143 1.6553 2.54374 1.6553 2.98306 2.09466L12.0929 11.2045C12.5322 11.6438 12.5322 12.3561 12.0929 12.7955ZM30 21.375V19.875C30 19.2536 29.4963 18.75 28.875 18.75H14.625C14.0037 18.75 13.5 19.2536 13.5 19.875V21.375C13.5 21.9963 14.0037 22.5 14.625 22.5H28.875C29.4963 22.5 30 21.9963 30 21.375Z" fill="#00005C"/>
</g>
<defs>
<clipPath id="clip0">
<rect width="30" height="24" fill="white"/>
</clipPath>
</defs>
</svg>
