<svg width="78" height="78" viewBox="0 0 78 78" fill="none" xmlns="http://www.w3.org/2000/svg">
<path opacity="0.1" d="M0 39C0 17.4609 17.4609 0 39 0C60.5391 0 78 17.4609 78 39C78 60.5391 60.5391 78 39 78H16C7.16344 78 0 70.8366 0 62V39Z" fill="#3C50E0"/>
<path d="M39 39C43.7344 39 47.5714 35.1949 47.5714 30.5C47.5714 25.8051 43.7344 22 39 22C34.2656 22 30.4286 25.8051 30.4286 30.5C30.4286 35.1949 34.2656 39 39 39ZM45.4152 41.1648L42.2143 53.875L40.0714 44.8438L42.2143 41.125H35.7857L37.9286 44.8438L35.7857 53.875L32.5848 41.1648C27.8103 41.3906 24 45.2621 24 50.05V52.8125C24 54.5723 25.4397 56 27.2143 56H50.7857C52.5603 56 54 54.5723 54 52.8125V50.05C54 45.2621 50.1897 41.3906 45.4152 41.1648Z" fill="#3C50E0"/>
</svg>
